<svg xmlns="http://www.w3.org/2000/svg" viewBox="0 0 16 16" shape-rendering="crispEdges"><rect width="16" height="16" rx="3.6" fill="#FAEDF1"/><g transform="rotate(8 8 8)"><rect x="5.82" y="0.80" width="2.56" height="1.28" fill="#F6C6D4"/><rect x="5.82" y="2.08" width="2.56" height="1.28" fill="#F6C6D4"/><rect x="4.54" y="3.36" width="1.28" height="1.28" fill="#B5476E"/><rect x="5.82" y="3.36" width="2.56" height="1.28" fill="#F6C6D4"/><rect x="8.38" y="3.36" width="1.28" height="1.28" fill="#B5476E"/><rect x="4.54" y="4.64" width="6.40" height="1.28" fill="#B5476E"/><rect x="3.26" y="5.92" width="7.68" height="1.28" fill="#B5476E"/><rect x="12.22" y="5.92" width="1.28" height="1.28" fill="#B5476E"/><rect x="3.26" y="7.20" width="1.28" height="1.28" fill="#B5476E"/><rect x="4.54" y="7.20" width="1.28" height="1.28" fill="#FAEDF1"/><rect x="5.82" y="7.20" width="7.68" height="1.28" fill="#B5476E"/><rect x="1.98" y="8.48" width="10.24" height="1.28" fill="#B5476E"/><rect x="1.98" y="9.76" width="11.52" height="1.28" fill="#B5476E"/><rect x="3.26" y="11.04" width="1.28" height="1.28" fill="#3A2E33"/><rect x="7.10" y="11.04" width="2.56" height="1.28" fill="#B5476E"/><rect x="12.22" y="11.04" width="1.28" height="1.28" fill="#3A2E33"/><rect x="1.98" y="12.32" width="3.84" height="1.28" fill="#3A2E33"/><rect x="10.94" y="12.32" width="3.84" height="1.28" fill="#3A2E33"/><rect x="1.98" y="13.60" width="1.28" height="1.28" fill="#3A2E33"/><rect x="3.26" y="13.60" width="1.28" height="1.28" fill="#D8CFC9"/><rect x="4.54" y="13.60" width="1.28" height="1.28" fill="#3A2E33"/><rect x="10.94" y="13.60" width="1.28" height="1.28" fill="#3A2E33"/><rect x="12.22" y="13.60" width="1.28" height="1.28" fill="#D8CFC9"/><rect x="13.50" y="13.60" width="1.28" height="1.28" fill="#3A2E33"/><rect x="3.26" y="14.88" width="1.28" height="1.28" fill="#3A2E33"/><rect x="12.22" y="14.88" width="1.28" height="1.28" fill="#3A2E33"/></g></svg>